<?xml version="1.0" encoding="UTF-8"?>
<svg xmlns="http://www.w3.org/2000/svg" id="Ebene_2" data-name="Ebene 2" viewBox="0 0 137.51 137.51">
  <defs>
    <style>
      .cls-1 {
        fill: #d22720;
        stroke-width: 0px;
      }
    </style>
  </defs>
  <g id="Ebene_1-2" data-name="Ebene 1">
    <path class="cls-1" d="M0,20v97.51c0,11.05,8.95,20,20,20h97.51c11.05,0,20-8.95,20-20V20c0-11.05-8.95-20-20-20H20C8.95,0,0,8.95,0,20ZM71.37,117.52h-6.49v-24.96h6.49v24.96ZM71.37,85.99c0,1.53-1.24,2.77-2.77,2.77h-.94c-1.53,0-2.77-1.24-2.77-2.77h0c0-1.53,1.24-2.77,2.77-2.77h.94c1.53,0,2.77,1.24,2.77,2.77h0ZM81.86,117.52h-6.49v-24.96h6.49v24.96ZM81.86,85.99c0,1.53-1.24,2.77-2.77,2.77h-.94c-1.53,0-2.77-1.24-2.77-2.77h0c0-1.53,1.24-2.77,2.77-2.77h.94c1.53,0,2.77,1.24,2.77,2.77h0ZM96.12,96.65h-3.76v13.67c0,1.97.42,2.77,2.3,2.77.49,0,.97-.04,1.46-.09v4.51c-1.41.14-2.73.28-4.23.28-5.08,0-6.02-1.55-6.02-6.67v-27.31h6.49v8.43h3.76v4.42ZM107.97,118.17c-7.28,0-9.3-3.2-9.3-8.04v-.89h5.82v.85c0,2.21,1.18,3.67,3.38,3.67,1.97,0,3.29-.99,3.29-3.01,0-1.64-1.09-2.4-2.35-2.87l-4.56-1.64c-3.57-1.27-5.4-3.48-5.4-7.05,0-4.18,2.63-7.61,9.31-7.61,5.87,0,8.65,2.63,8.65,7.19v1.03h-5.83c0-2.54-.75-3.81-2.87-3.81-1.64,0-3.05.94-3.05,2.73,0,1.22.66,2.26,2.82,2.96l3.91,1.32c4.09,1.36,5.59,3.43,5.59,7.24,0,5.31-3.95,7.94-9.4,7.94Z"></path>
  </g>
</svg>
